<svg xmlns="http://www.w3.org/2000/svg" viewBox="0 0 42 42" width="42" height="42">
	<style>
		tspan { white-space:pre }
		.shp0 { fill: #777777 } 
		.shp1 { fill: #ffffff } 
	</style>
	<g id="Page 1">
		<path id="Path 2" class="shp0" d="M31.53,16.67c0,-5.9 -4.8,-10.7 -10.7,-10.7c-5.9,0 -10.7,4.8 -10.7,10.7c0,0.55 0.04,1.08 0.12,1.61c0.23,2.65 1.81,8.61 9.92,17.94c0,0 0.39,0.39 0.66,0.39c0.27,0 0.66,-0.39 0.66,-0.39c8.11,-9.33 9.69,-15.28 9.92,-17.94c0.08,-0.52 0.12,-1.06 0.12,-1.61z" />
		<path id="Path 3" class="shp1" d="M14.6,16.67c0,3.44 2.79,6.24 6.24,6.24c3.44,0 6.24,-2.79 6.24,-6.24c0,-3.44 -2.79,-6.24 -6.24,-6.24c-3.44,0 -6.24,2.79 -6.24,6.24z" />
	</g>
</svg>