<svg width="131" height="48" viewBox="0 0 131 48" fill="none" xmlns="http://www.w3.org/2000/svg">
<path d="M62.7 23.2C60.8067 23.0933 59.3667 22.52 58.38 21.48C57.3933 20.44 56.9 18.9467 56.9 17C56.9 15.0533 57.3933 13.56 58.38 12.52C59.3667 11.48 60.8067 10.9067 62.7 10.8V9.4H64.7V10.8C66.5933 10.9067 68.0333 11.48 69.02 12.52C70.0067 13.56 70.5 15.0533 70.5 17C70.5 18.9467 70.0067 20.44 69.02 21.48C68.0333 22.52 66.5933 23.0933 64.7 23.2V24.6H62.7V23.2ZM62.7 12.2C61.5 12.32 60.5667 12.7733 59.9 13.56C59.2333 14.3467 58.9 15.4933 58.9 17C58.9 18.5067 59.2333 19.66 59.9 20.46C60.58 21.26 61.5133 21.7067 62.7 21.8V12.2ZM64.7 21.8C65.8867 21.7067 66.8133 21.26 67.48 20.46C68.16 19.66 68.5 18.5067 68.5 17C68.5 15.4933 68.1667 14.3467 67.5 13.56C66.8333 12.7733 65.9 12.32 64.7 12.2V21.8ZM73.9906 24V10H81.7906V11.4H75.9906V16H80.5906V17.4H75.9906V22.6H81.7906V24H73.9906ZM84.9859 24V10H86.9859V16.2H91.9859V10H93.9859V24H91.9859V17.6H86.9859V24H84.9859ZM98.3836 10H100.384V18.9C100.384 19.1667 100.37 19.5267 100.344 19.98L100.304 20.6H100.384L100.564 19.98C100.59 19.9133 100.617 19.8467 100.644 19.78C100.67 19.7 100.697 19.6267 100.724 19.56C100.83 19.24 100.917 19.02 100.984 18.9L105.384 10H107.384V24H105.384V15.1C105.384 14.8867 105.397 14.5267 105.424 14.02L105.464 13.4H105.384L105.204 14.02C104.99 14.5933 104.85 14.9533 104.784 15.1L100.384 24H98.3836V10ZM116.281 24.2C114.615 24.2 113.328 23.6267 112.421 22.48C111.528 21.3333 111.081 19.5067 111.081 17C111.081 14.5067 111.521 12.6867 112.401 11.54C113.281 10.38 114.508 9.8 116.081 9.8C117.028 9.8 117.888 9.98667 118.661 10.36C119.035 10.5333 119.341 10.7133 119.581 10.9L118.881 12.1H118.681C118.481 11.9533 118.255 11.8067 118.001 11.66C117.415 11.3533 116.841 11.2 116.281 11.2C114.148 11.2 113.081 13.1333 113.081 17C113.081 19.08 113.375 20.5667 113.961 21.46C114.561 22.3533 115.401 22.8 116.481 22.8C117.068 22.8 117.641 22.6533 118.201 22.36C118.481 22.2 118.708 22.0467 118.881 21.9H119.081L119.781 23.1C119.555 23.2867 119.248 23.4733 118.861 23.66C118.115 24.02 117.255 24.2 116.281 24.2ZM124.874 24V11.4H121.274V10H130.474V11.4H126.874V24H124.874ZM60.64 40.16C59.3813 40.1173 58.4107 39.744 57.728 39.04C57.056 38.336 56.72 37.3227 56.72 36C56.72 34.6773 57.056 33.664 57.728 32.96C58.4107 32.256 59.3813 31.8827 60.64 31.84V29.28L61.12 28.8H62.24V31.84C63.4987 31.8827 64.464 32.256 65.136 32.96C65.8187 33.664 66.16 34.6773 66.16 36C66.16 37.3227 65.8187 38.336 65.136 39.04C64.464 39.744 63.4987 40.1173 62.24 40.16V43.2H60.64V40.16ZM60.64 32.96C59.8827 33.0027 59.3067 33.2693 58.912 33.76C58.5173 34.24 58.32 34.9867 58.32 36C58.32 37.0133 58.5173 37.7653 58.912 38.256C59.3067 38.736 59.8827 38.9973 60.64 39.04V32.96ZM62.24 39.04C62.9973 38.9973 63.5733 38.736 63.968 38.256C64.3627 37.7653 64.56 37.0133 64.56 36C64.56 34.9867 64.3627 34.24 63.968 33.76C63.5733 33.2693 62.9973 33.0027 62.24 32.96V39.04ZM71.195 40.16C70.0857 40.16 69.2217 39.808 68.603 39.104C67.9843 38.4 67.675 37.3653 67.675 36C67.675 34.6453 67.9737 33.616 68.571 32.912C69.1683 32.1973 69.963 31.84 70.955 31.84C71.947 31.84 72.7417 32.1973 73.339 32.912C73.9363 33.616 74.235 34.6453 74.235 36V36.24L73.915 36.56H69.275C69.275 37.3813 69.4563 38 69.819 38.416C70.1817 38.832 70.6937 39.04 71.355 39.04C71.7497 39.04 72.1603 38.9227 72.587 38.688C72.811 38.56 72.987 38.4373 73.115 38.32H73.275L73.835 39.28C73.643 39.44 73.403 39.5893 73.115 39.728C72.5603 40.016 71.9203 40.16 71.195 40.16ZM72.635 35.44C72.635 34.5973 72.4803 33.9733 72.171 33.568C71.8723 33.1627 71.467 32.96 70.955 32.96C70.443 32.96 70.0323 33.1627 69.723 33.568C69.4243 33.9733 69.275 34.5973 69.275 35.44H72.635ZM79.2731 40.16C78.1638 40.16 77.2998 39.808 76.6811 39.104C76.0625 38.4 75.7531 37.3653 75.7531 36C75.7531 34.6347 76.0518 33.6 76.6491 32.896C77.2571 32.192 78.0785 31.84 79.1131 31.84C79.8171 31.84 80.4571 31.9893 81.0331 32.288C81.3105 32.416 81.5505 32.56 81.7531 32.72L81.1931 33.68H81.0331C80.8945 33.5733 80.7185 33.456 80.5051 33.328C80.0571 33.0827 79.6465 32.96 79.2731 32.96C78.6758 32.96 78.2065 33.2 77.8651 33.68C77.5238 34.16 77.3531 34.9333 77.3531 36C77.3531 37.0773 77.5291 37.856 77.8811 38.336C78.2438 38.8053 78.7611 39.04 79.4331 39.04C79.8278 39.04 80.2385 38.9227 80.6651 38.688C80.8891 38.56 81.0651 38.4373 81.1931 38.32H81.3531L81.9131 39.28C81.7211 39.44 81.4811 39.5893 81.1931 39.728C80.6385 40.016 79.9985 40.16 79.2731 40.16ZM84.7944 40V33.12H82.3944V32H88.7944V33.12H86.3944V40H84.7944ZM90.1531 32H91.7531V36.56C91.7531 36.7307 91.7425 36.976 91.7211 37.296L91.6891 37.68H91.7531L91.8811 37.296C91.9558 37.072 92.0731 36.8267 92.2331 36.56L94.9531 32H96.5531V40H94.9531V35.44C94.9531 35.2693 94.9638 35.024 94.9851 34.704L95.0171 34.32H94.9531L94.8251 34.704C94.7505 34.928 94.6331 35.1733 94.4731 35.44L91.7531 40H90.1531V32ZM98.95 32H101.99C102.598 32 103.121 32.096 103.558 32.288C103.995 32.4693 104.321 32.72 104.534 33.04C104.758 33.36 104.87 33.7067 104.87 34.08C104.87 34.688 104.614 35.1627 104.102 35.504C103.878 35.6427 103.627 35.7547 103.35 35.84C103.691 35.904 103.995 36.016 104.262 36.176C104.539 36.3573 104.763 36.5813 104.934 36.848C105.105 37.104 105.19 37.4347 105.19 37.84C105.19 38.48 104.923 39.0027 104.39 39.408C103.857 39.8027 103.057 40 101.99 40H98.95V32ZM101.99 35.36C102.385 35.36 102.694 35.2587 102.918 35.056C103.153 34.8427 103.27 34.5707 103.27 34.24C103.27 33.9093 103.153 33.6427 102.918 33.44C102.694 33.2267 102.385 33.12 101.99 33.12H100.55V35.36H101.99ZM101.99 38.88C102.534 38.88 102.934 38.7733 103.19 38.56C103.457 38.3467 103.59 38.0533 103.59 37.68C103.59 37.3067 103.457 37.0133 103.19 36.8C102.934 36.5867 102.534 36.48 101.99 36.48H100.55V38.88H101.99ZM109.266 40.16C108.434 40.16 107.784 39.9413 107.314 39.504C106.856 39.056 106.626 38.448 106.626 37.68C106.626 36.9227 106.898 36.336 107.442 35.92C107.997 35.4933 108.872 35.28 110.066 35.28H111.346V34.88C111.346 34.2507 111.197 33.776 110.898 33.456C110.61 33.1253 110.2 32.96 109.666 32.96C109.282 32.96 108.866 33.0827 108.418 33.328C108.194 33.456 108.024 33.5733 107.906 33.68H107.746L107.186 32.72C107.4 32.56 107.64 32.416 107.906 32.288C108.482 31.9893 109.122 31.84 109.826 31.84C110.434 31.84 110.973 31.9733 111.442 32.24C111.912 32.496 112.28 32.8587 112.546 33.328C112.813 33.7867 112.946 34.304 112.946 34.88V40H111.826L111.666 39.04H111.586C111.437 39.2533 111.25 39.44 111.026 39.6C110.557 39.9733 109.97 40.16 109.266 40.16ZM109.666 38.96C110.061 38.96 110.461 38.8 110.866 38.48C111.048 38.3307 111.208 38.1707 111.346 38V36.4H110.066C109.458 36.4 109 36.5173 108.69 36.752C108.381 36.9867 108.226 37.296 108.226 37.68C108.226 38.096 108.344 38.416 108.578 38.64C108.824 38.8533 109.186 38.96 109.666 38.96ZM115.103 40.16C114.879 40.16 114.671 40.1333 114.479 40.08C114.415 40.0693 114.329 40.0427 114.223 40L114.303 38.96H114.463L114.559 39.008C114.665 39.0293 114.74 39.04 114.783 39.04C115.007 39.04 115.183 38.9227 115.311 38.688C115.449 38.4533 115.54 38.0373 115.583 37.44L115.903 32H121.503V40H119.903V33.12H117.423L117.183 37.44C117.076 39.2533 116.383 40.16 115.103 40.16ZM123.903 32H125.503V34.72H126.943C129.076 34.72 130.143 35.6 130.143 37.36C130.143 39.12 129.076 40 126.943 40H123.903V32ZM126.943 38.88C127.508 38.88 127.914 38.7573 128.159 38.512C128.415 38.2667 128.543 37.8827 128.543 37.36C128.543 36.8373 128.415 36.4533 128.159 36.208C127.914 35.9627 127.508 35.84 126.943 35.84H125.503V38.88H126.943Z" fill="white"/>
<path fill-rule="evenodd" clip-rule="evenodd" d="M8 0C3.58173 0 0 3.58173 0 8V40C0 44.4183 3.58173 48 8 48H40C44.4183 48 48 44.4183 48 40V8C48 3.58173 44.4183 0 40 0H8ZM20 16C17.7909 16 16 17.7909 16 20V28C16 30.2091 17.7909 32 20 32H28C30.2091 32 32 30.2091 32 28V20C32 17.7909 30.2091 16 28 16H20ZM37 23C37 21.8954 37.8954 21 39 21H41C42.1046 21 43 21.8954 43 23V25C43 26.1046 42.1046 27 41 27H39C37.8954 27 37 26.1046 37 25V23ZM7 21C5.89543 21 5 21.8954 5 23V25C5 26.1046 5.89543 27 7 27H9C10.1046 27 11 26.1046 11 25V23C11 21.8954 10.1046 21 9 21H7ZM5 7C5 5.89543 5.89543 5 7 5H9C10.1046 5 11 5.89543 11 7V9C11 10.1046 10.1046 11 9 11H7C5.89543 11 5 10.1046 5 9V7ZM23 5C21.8954 5 21 5.89543 21 7V9C21 10.1046 21.8954 11 23 11H25C26.1046 11 27 10.1046 27 9V7C27 5.89543 26.1046 5 25 5H23ZM37 7C37 5.89543 37.8954 5 39 5H41C42.1046 5 43 5.89543 43 7V9C43 10.1046 42.1046 11 41 11H39C37.8954 11 37 10.1046 37 9V7ZM7 37C5.89543 37 5 37.8954 5 39V41C5 42.1046 5.89543 43 7 43H9C10.1046 43 11 42.1046 11 41V39C11 37.8954 10.1046 37 9 37H7ZM21 39C21 37.8954 21.8954 37 23 37H25C26.1046 37 27 37.8954 27 39V41C27 42.1046 26.1046 43 25 43H23C21.8954 43 21 42.1046 21 41V39ZM39 37C37.8954 37 37 37.8954 37 39V41C37 42.1046 37.8954 43 39 43H41C42.1046 43 43 42.1046 43 41V39C43 37.8954 42.1046 37 41 37H39Z" fill="white"/>
</svg>
