<svg width="48" height="48" viewBox="0 0 48 48" fill="none" xmlns="http://www.w3.org/2000/svg">
<path fill-rule="evenodd" clip-rule="evenodd" d="M8 0C3.58173 0 0 3.58173 0 8V40C0 44.4183 3.58173 48 8 48H40C44.4183 48 48 44.4183 48 40V8C48 3.58173 44.4183 0 40 0H8ZM20 16C17.7909 16 16 17.7909 16 20V28C16 30.2091 17.7909 32 20 32H28C30.2091 32 32 30.2091 32 28V20C32 17.7909 30.2091 16 28 16H20ZM37 23C37 21.8954 37.8954 21 39 21H41C42.1046 21 43 21.8954 43 23V25C43 26.1046 42.1046 27 41 27H39C37.8954 27 37 26.1046 37 25V23ZM7 21C5.89543 21 5 21.8954 5 23V25C5 26.1046 5.89543 27 7 27H9C10.1046 27 11 26.1046 11 25V23C11 21.8954 10.1046 21 9 21H7ZM5 7C5 5.89543 5.89543 5 7 5H9C10.1046 5 11 5.89543 11 7V9C11 10.1046 10.1046 11 9 11H7C5.89543 11 5 10.1046 5 9V7ZM23 5C21.8954 5 21 5.89543 21 7V9C21 10.1046 21.8954 11 23 11H25C26.1046 11 27 10.1046 27 9V7C27 5.89543 26.1046 5 25 5H23ZM37 7C37 5.89543 37.8954 5 39 5H41C42.1046 5 43 5.89543 43 7V9C43 10.1046 42.1046 11 41 11H39C37.8954 11 37 10.1046 37 9V7ZM7 37C5.89543 37 5 37.8954 5 39V41C5 42.1046 5.89543 43 7 43H9C10.1046 43 11 42.1046 11 41V39C11 37.8954 10.1046 37 9 37H7ZM21 39C21 37.8954 21.8954 37 23 37H25C26.1046 37 27 37.8954 27 39V41C27 42.1046 26.1046 43 25 43H23C21.8954 43 21 42.1046 21 41V39ZM39 37C37.8954 37 37 37.8954 37 39V41C37 42.1046 37.8954 43 39 43H41C42.1046 43 43 42.1046 43 41V39C43 37.8954 42.1046 37 41 37H39Z" fill="white"/>
</svg>
