<svg width="16" height="16" viewBox="0 0 16 16" fill="none" xmlns="http://www.w3.org/2000/svg">
<path d="M7.29289 8.70711C7.68342 9.09763 8.31658 9.09763 8.70711 8.70711L15.0711 2.34315C15.4616 1.95262 15.4616 1.31946 15.0711 0.928932C14.6805 0.538408 14.0474 0.538408 13.6569 0.928932L8 6.58579L2.34315 0.928932C1.95262 0.538408 1.31946 0.538408 0.928932 0.928932C0.538408 1.31946 0.538408 1.95262 0.928932 2.34315L7.29289 8.70711ZM7.29289 15.7071C7.68342 16.0976 8.31658 16.0976 8.70711 15.7071L15.0711 9.34315C15.4616 8.95262 15.4616 8.31946 15.0711 7.92893C14.6805 7.53841 14.0474 7.53841 13.6569 7.92893L8 13.5858L2.34315 7.92893C1.95262 7.53841 1.31946 7.53841 0.928932 7.92893C0.538408 8.31946 0.538408 8.95262 0.928932 9.34315L7.29289 15.7071ZM7 7.5L7 8L9 8L9 7.5L7 7.5ZM7 14.5L7 15L9 15L9 14.5L7 14.5Z" fill="#F25CA2"/>
</svg>
