<svg width="36" height="36" viewBox="0 0 36 36" fill="none" xmlns="http://www.w3.org/2000/svg">
<circle cx="18" cy="18" r="17.5" stroke="white"/>
<path d="M26.01 9H9.99C9.441 9 9 9.441 9 9.99V26.01C9 26.559 9.441 27 9.99 27H18.621V20.043H16.281V17.316H18.621V15.309C18.621 12.987 20.043 11.718 22.113 11.718C22.815 11.718 23.508 11.754 24.201 11.826V14.256H22.77C21.636 14.256 21.42 14.787 21.42 15.579V17.316H24.12L23.769 20.043H21.402V27H25.992C26.541 27 26.982 26.559 26.982 26.01V9.99C27 9.441 26.559 9 26.01 9Z" fill="white"/>
</svg>
