<svg width="36" height="36" viewBox="0 0 36 36" fill="none" xmlns="http://www.w3.org/2000/svg">
<circle cx="18" cy="18" r="17.5" stroke="white"/>
<path d="M18 10.62C20.403 10.62 20.691 10.629 21.636 10.674C22.509 10.71 22.986 10.863 23.31 10.98C23.733 11.142 24.03 11.34 24.345 11.655C24.66 11.97 24.849 12.276 25.02 12.69C25.146 13.005 25.29 13.482 25.326 14.364C25.371 15.309 25.38 15.597 25.38 18C25.38 20.403 25.371 20.691 25.326 21.636C25.29 22.509 25.137 22.986 25.02 23.31C24.858 23.733 24.66 24.03 24.345 24.345C24.03 24.66 23.733 24.858 23.31 25.02C22.995 25.146 22.518 25.29 21.636 25.326C20.691 25.371 20.403 25.38 18 25.38C15.597 25.38 15.309 25.371 14.364 25.326C13.491 25.29 13.014 25.137 12.69 25.02C12.267 24.858 11.97 24.66 11.655 24.345C11.34 24.03 11.151 23.724 10.98 23.31C10.854 22.995 10.71 22.518 10.674 21.636C10.629 20.691 10.62 20.403 10.62 18C10.62 15.597 10.629 15.309 10.674 14.364C10.71 13.482 10.863 13.005 10.98 12.69C11.142 12.267 11.34 11.97 11.655 11.655C11.97 11.34 12.276 11.151 12.69 10.98C13.005 10.854 13.482 10.71 14.364 10.674C15.309 10.629 15.597 10.62 18 10.62ZM18 9C15.552 9 15.246 9.009 14.292 9.054C13.329 9.099 12.681 9.252 12.105 9.468C11.511 9.702 11.007 10.008 10.512 10.503C10.008 11.007 9.702 11.502 9.477 12.096C9.252 12.681 9.099 13.329 9.054 14.292C9.009 15.246 9 15.552 9 18C9 20.448 9.009 20.754 9.054 21.708C9.099 22.662 9.252 23.319 9.468 23.895C9.702 24.489 10.008 24.993 10.503 25.488C11.007 25.992 11.502 26.298 12.096 26.523C12.672 26.748 13.32 26.901 14.283 26.937C15.246 26.991 15.552 27 18 27C20.448 27 20.754 26.991 21.708 26.946C22.662 26.901 23.319 26.748 23.895 26.532C24.489 26.298 24.993 25.992 25.488 25.497C25.992 24.993 26.298 24.498 26.523 23.904C26.748 23.328 26.901 22.68 26.937 21.717C26.991 20.754 27 20.448 27 18C27 15.552 26.991 15.246 26.946 14.292C26.901 13.338 26.748 12.681 26.532 12.105C26.298 11.511 25.992 11.007 25.497 10.512C24.993 10.008 24.498 9.702 23.904 9.477C23.328 9.252 22.68 9.099 21.717 9.063C20.754 9.009 20.448 9 18 9Z" fill="white"/>
<path d="M18 13.374C15.444 13.374 13.374 15.444 13.374 18C13.374 20.556 15.444 22.626 18 22.626C20.556 22.626 22.626 20.556 22.626 18C22.626 15.444 20.556 13.374 18 13.374ZM18 20.997C16.344 20.997 15.003 19.656 15.003 18C15.003 16.344 16.344 15.003 18 15.003C19.656 15.003 20.997 16.344 20.997 18C20.997 19.656 19.656 20.997 18 20.997Z" fill="white"/>
<path d="M22.806 14.274C23.4025 14.274 23.886 13.7905 23.886 13.194C23.886 12.5975 23.4025 12.114 22.806 12.114C22.2095 12.114 21.726 12.5975 21.726 13.194C21.726 13.7905 22.2095 14.274 22.806 14.274Z" fill="white"/>
</svg>
