<svg width="36" height="36" viewBox="0 0 36 36" fill="none" xmlns="http://www.w3.org/2000/svg">
<circle cx="18" cy="18" r="17.5" stroke="white"/>
<g clip-path="url(#clip0)">
<path d="M14.661 25.425C21.456 25.425 25.164 19.8 25.164 14.922C25.164 14.76 25.164 14.607 25.155 14.445C25.875 13.923 26.505 13.275 27 12.537C26.334 12.834 25.623 13.032 24.876 13.122C25.641 12.663 26.226 11.943 26.496 11.079C25.785 11.502 24.993 11.808 24.147 11.979C23.472 11.259 22.509 10.809 21.447 10.809C19.404 10.809 17.757 12.465 17.757 14.499C17.757 14.787 17.793 15.075 17.856 15.345C14.787 15.192 12.069 13.725 10.242 11.484C9.93603 12.024 9.75603 12.654 9.75603 13.329C9.75603 14.607 10.404 15.741 11.403 16.407C10.791 16.389 10.224 16.218 9.72003 15.948C9.72003 15.966 9.72003 15.975 9.72003 15.993C9.72003 17.784 10.989 19.278 12.681 19.611C12.375 19.692 12.051 19.746 11.709 19.746C11.475 19.746 11.241 19.719 11.016 19.683C11.484 21.15 12.852 22.221 14.463 22.248C13.203 23.238 11.61 23.832 9.87303 23.832C9.57603 23.832 9.27903 23.814 8.99103 23.778C10.638 24.813 12.573 25.425 14.661 25.425Z" fill="white"/>
</g>
<defs>
<clipPath id="clip0">
<rect width="18" height="14.625" fill="white" transform="translate(9 10.8)"/>
</clipPath>
</defs>
</svg>
