<svg width="36" height="36" viewBox="0 0 36 36" fill="none" xmlns="http://www.w3.org/2000/svg">
<path fill-rule="evenodd" clip-rule="evenodd" d="M20.763 9C15.723 9 20.286 9 15.246 9C10.197 9 9 10.197 9 15.237C9 18.054 9 15.714 9 20.754C9 25.794 10.197 27 15.237 27C20.277 27 15.714 27 20.754 27C25.794 27 26.991 25.803 26.991 20.763C26.991 15.723 26.991 20.286 26.991 15.246C27 10.197 25.803 9 20.763 9ZM23.535 21.843H22.221C21.717 21.843 21.573 21.447 20.682 20.556C19.899 19.809 19.566 19.71 19.377 19.71C19.116 19.71 19.035 19.782 19.035 20.16V21.339C19.035 21.663 18.936 21.852 18.099 21.852C16.713 21.852 15.183 21.006 14.094 19.449C12.465 17.172 12.024 15.444 12.024 15.093C12.024 14.895 12.096 14.724 12.474 14.724H13.788C14.121 14.724 14.247 14.868 14.373 15.237C15.012 17.1 16.092 18.729 16.542 18.729C16.713 18.729 16.785 18.648 16.785 18.225V16.299C16.731 15.408 16.263 15.336 16.263 15.021C16.263 14.877 16.389 14.715 16.596 14.715H18.657C18.936 14.715 19.035 14.868 19.035 15.201V17.802C19.035 18.081 19.152 18.18 19.242 18.18C19.413 18.18 19.548 18.081 19.854 17.775C20.799 16.722 21.465 15.093 21.465 15.093C21.546 14.895 21.699 14.724 22.032 14.724H23.346C23.742 14.724 23.823 14.931 23.742 15.21C23.571 15.975 21.978 18.225 21.978 18.225C21.843 18.45 21.78 18.558 21.978 18.81C22.113 19.008 22.572 19.395 22.878 19.755C23.445 20.385 23.868 20.925 23.985 21.294C24.093 21.654 23.904 21.843 23.535 21.843Z" fill="white"/>
<circle cx="18" cy="18" r="17.5" stroke="white"/>
</svg>
