<svg width="36" height="36" viewBox="0 0 36 36" fill="none" xmlns="http://www.w3.org/2000/svg">
<circle cx="18" cy="18" r="17.5" stroke="white"/>
<g clip-path="url(#clip0)">
<path d="M26.622 13.671C26.415 12.897 25.803 12.285 25.029 12.078C23.625 11.7 18 11.7 18 11.7C18 11.7 12.375 11.7 10.971 12.078C10.197 12.285 9.585 12.897 9.378 13.671C9 15.075 9 18 9 18C9 18 9 20.925 9.378 22.329C9.585 23.103 10.197 23.715 10.971 23.922C12.375 24.3 18 24.3 18 24.3C18 24.3 23.625 24.3 25.029 23.922C25.803 23.715 26.415 23.103 26.622 22.329C27 20.925 27 18 27 18C27 18 27 15.075 26.622 13.671ZM16.2 20.7V15.3L20.88 18L16.2 20.7Z" fill="white"/>
</g>
<defs>
<clipPath id="clip0">
<rect width="18" height="12.6" fill="white" transform="translate(9 11.7)"/>
</clipPath>
</defs>
</svg>
