<svg class="in" xmlns="http://www.w3.org/2000/svg" viewBox="0 0 24 24">
  <rect class="bg" fill="#e62d27" width="24" height="24" rx="2" ry="2"/>
  <g>
    <path class="bg" fill="#e62d27" d="M10.35,14l4.32-2.19-4.32-2.2Z" transform="translate(0 0)"/>
    <path class="wt" fill="#ffffff" d="M19.84,8.87a3.34,3.34,0,0,0-.64-1.55,2.32,2.32,0,0,0-1.6-.66C15.36,6.5,12,6.5,12,6.5h0s-3.36,0-5.6.16a2.32,2.32,0,0,0-1.6.66,3.34,3.34,0,0,0-.64,1.55A23.12,23.12,0,0,0,4,11.4v1.19a23.12,23.12,0,0,0,.16,2.53,3.34,3.34,0,0,0,.64,1.55,2.75,2.75,0,0,0,1.76.67c1.28.12,5.44.16,5.44.16s3.36,0,5.6-.16a2.32,2.32,0,0,0,1.6-.66,3.34,3.34,0,0,0,.64-1.55A23.17,23.17,0,0,0,20,12.59V11.4A23.17,23.17,0,0,0,19.84,8.87ZM10.35,14V9.63l4.32,2.2Z" transform="translate(0 0)"/>
  </g>
</svg>
