<svg  class="in" xmlns="http://www.w3.org/2000/svg" xmlns:xlink="http://www.w3.org/1999/xlink" x="0px" y="0px"
	 viewBox="0 0 24 24" style="enable-background:new 0 0 24 24;" xml:space="preserve">
<path fill="#3C5A99" class="bg" d="M22,24H2c-1.1,0-2-0.9-2-2L0,2c0-1.1,0.9-2,2-2l20,0c1.1,0,2,0.9,2,2v20C24,23.1,23.1,24,22,24z"/>
<path fill="#FFFFFF" class="wt" d="M16.6,24v-9.3h3.1l0.5-3.6h-3.6V8.8c0-1,0.3-1.8,1.8-1.8l1.9,0V3.8c-0.3,0-1.5-0.1-2.8-0.1
	c-2.8,0-4.7,1.7-4.7,4.8v2.7H9.7v3.6h3.1V24H16.6z"/>
</svg>
