<svg class="in" xmlns="http://www.w3.org/2000/svg" xmlns:xlink="http://www.w3.org/1999/xlink" x="0px" y="0px"
	 viewBox="0 0 24 24" style="enable-background:new 0 0 24 24;" xml:space="preserve">
<path class="bg" fill="#4D75A3" d="M22,24H2c-1.1,0-2-0.9-2-2L0,2c0-1.1,0.9-2,2-2l20,0c1.1,0,2,0.9,2,2v20C24,23.1,23.1,24,22,24z"/>
<path class="wt" fill="#FFFFFF" d="M17.4,12.2c0,0,2.1-2.9,2.3-3.9c0.1-0.3-0.1-0.5-0.4-0.5c0,0-1.2,0-1.8,0c-0.4,0-0.6,0.2-0.7,0.4
	c0,0-1,2.1-2.2,3.4c-0.4,0.4-0.6,0.5-0.8,0.5c-0.2,0-0.2-0.1-0.2-0.5V8.3c0-0.5-0.1-0.6-0.4-0.6h-2.9c-0.2,0-0.4,0.1-0.4,0.3
	c0,0.4,0.7,0.5,0.7,1.7v2.5c0,0.5,0,0.7-0.3,0.7c-0.6,0-2.1-2.1-2.9-4.5C7.3,7.8,7.1,7.7,6.6,7.7H4.8c-0.3,0-0.5,0.2-0.5,0.4
	c0,0.5,0.6,2.7,2.8,5.7c1.5,2,3.4,3.1,5.2,3.1c1.1,0,1.3-0.2,1.3-0.6v-1.5c0-0.4,0.2-0.5,0.4-0.5c0.2,0,0.7,0.1,1.7,1.1
	c1.2,1.2,1.3,1.6,2,1.6h2c0.2,0,0.4-0.1,0.4-0.4c0-0.5-0.6-1.3-1.5-2.2c-0.4-0.5-1-1-1.2-1.3C17.2,12.7,17.2,12.5,17.4,12.2z"/>
</svg>
